<svg id="svg" version="1.1" xmlns="http://www.w3.org/2000/svg" xmlns:xlink="http://www.w3.org/1999/xlink" width="400" height="400" viewBox="0, 0, 400,400"><g id="svgg"><path id="path0" d="M17.391 154.479 C 17.280 154.768,17.237 161.483,17.295 169.402 L 17.400 183.800 19.520 183.922 L 21.639 184.043 21.545 182.229 C 21.428 179.957,21.695 179.671,22.613 181.088 C 25.109 184.938,30.537 185.827,34.600 183.050 C 40.263 179.179,40.396 167.777,34.824 163.807 C 30.380 160.639,22.336 163.228,21.514 168.091 C 21.467 168.371,21.332 165.360,21.214 161.400 L 21.000 154.200 19.296 154.077 C 18.165 153.995,17.525 154.130,17.391 154.479 M63.660 154.527 C 63.314 154.944,63.218 158.897,63.295 169.447 L 63.400 183.800 65.400 183.800 L 67.400 183.800 67.400 169.000 L 67.400 154.200 65.765 154.080 C 64.718 154.003,63.962 154.164,63.660 154.527 M71.782 154.502 C 71.676 154.778,71.637 161.483,71.695 169.402 L 71.800 183.800 73.800 183.800 L 75.800 183.800 75.905 169.447 C 75.980 159.187,75.881 154.938,75.556 154.547 C 74.984 153.858,72.043 153.823,71.782 154.502 M101.515 154.700 C 100.814 156.286,101.875 163.800,102.800 163.800 C 103.891 163.800,104.254 162.146,104.357 156.700 L 104.400 154.400 103.024 154.400 C 102.267 154.400,101.588 154.535,101.515 154.700 M230.623 156.089 C 228.677 158.866,232.139 161.835,234.806 159.676 C 235.892 158.796,235.977 157.079,234.988 155.987 C 233.963 154.854,231.447 154.913,230.623 156.089 M371.200 158.181 C 371.200 161.762,370.595 162.553,367.600 162.888 C 366.682 162.991,366.600 163.163,366.600 165.000 L 366.600 167.000 368.500 167.122 L 370.400 167.244 370.411 173.322 C 370.421 178.833,370.507 179.568,371.330 181.200 C 374.211 186.911,384.091 185.145,384.175 178.905 L 384.200 177.000 382.829 177.000 C 381.643 177.000,381.414 177.162,381.137 178.200 C 380.723 179.748,379.796 180.401,378.024 180.394 C 374.992 180.381,374.400 179.067,374.400 172.354 L 374.400 167.200 377.551 167.200 C 381.188 167.200,381.717 166.845,381.526 164.528 L 381.400 163.000 377.745 162.886 L 374.090 162.771 374.302 159.386 L 374.513 156.000 372.856 156.000 L 371.200 156.000 371.200 158.181 M254.600 157.277 C 253.458 157.922,253.028 158.754,252.800 160.757 L 252.600 162.515 248.767 162.435 C 244.890 162.355,243.674 162.633,241.524 164.090 C 238.268 166.299,238.550 172.625,241.995 174.661 C 243.363 175.469,243.548 176.000,242.461 176.000 C 238.957 176.000,236.168 181.204,239.500 181.525 C 240.818 181.652,241.419 183.170,240.400 183.800 C 240.180 183.936,240.000 184.785,240.000 185.686 C 240.000 193.229,256.196 193.793,258.818 186.341 C 260.271 182.212,256.804 180.183,247.535 179.741 C 241.730 179.464,241.032 179.302,241.408 178.322 C 241.794 177.317,243.426 176.814,247.730 176.373 C 256.385 175.485,260.044 170.927,256.407 165.560 C 254.541 162.807,254.909 160.800,257.280 160.800 C 258.310 160.800,258.400 160.678,258.400 159.280 C 258.400 156.948,256.734 156.070,254.600 157.277 M46.400 163.341 C 36.750 168.267,40.516 184.800,51.289 184.800 C 56.352 184.800,62.472 178.951,59.226 177.214 C 58.045 176.582,56.800 176.705,56.800 177.453 C 56.800 180.003,50.420 181.342,47.473 179.411 C 46.283 178.632,44.800 175.987,44.800 174.646 L 44.800 173.600 52.385 173.600 L 59.969 173.600 60.411 171.959 C 62.243 165.155,53.446 159.745,46.400 163.341 M84.519 163.255 C 77.533 166.645,76.689 178.890,83.160 182.975 C 88.427 186.300,95.948 184.405,97.622 179.332 C 98.436 176.868,95.603 175.745,94.309 178.019 C 92.161 181.793,85.434 181.033,83.316 176.776 C 81.671 173.469,81.397 173.600,89.986 173.600 C 98.608 173.600,98.400 173.684,98.400 170.210 C 98.400 164.133,90.682 160.265,84.519 163.255 M112.000 163.339 C 106.444 166.166,108.211 171.605,115.200 173.190 C 121.469 174.612,123.658 175.925,122.988 177.858 C 121.591 181.884,112.284 180.999,111.856 176.800 C 111.648 174.764,109.034 174.425,108.605 176.378 C 106.894 184.168,122.708 188.302,126.186 180.974 C 128.318 176.481,126.014 174.227,117.400 172.376 C 114.087 171.664,112.800 170.715,112.800 168.983 C 112.800 165.368,121.827 165.464,122.623 169.088 C 123.060 171.080,123.160 171.200,124.380 171.200 C 126.350 171.200,126.611 167.744,124.831 165.243 C 122.795 162.385,115.889 161.359,112.000 163.339 M146.119 163.255 C 139.118 166.652,138.259 178.939,144.743 182.944 C 150.237 186.338,158.333 184.235,159.350 179.150 C 159.752 177.142,156.809 175.682,156.203 177.590 C 154.369 183.369,144.161 179.936,144.030 173.496 C 143.886 166.363,154.957 163.432,156.238 170.264 C 156.573 172.045,159.009 172.299,159.436 170.597 C 160.900 164.766,152.524 160.148,146.119 163.255 M168.200 162.889 C 158.430 166.352,159.846 182.245,170.119 184.425 C 180.328 186.592,187.247 175.118,181.145 166.140 C 178.945 162.904,172.630 161.318,168.200 162.889 M195.363 163.008 C 193.978 163.616,191.787 165.939,191.085 167.544 C 190.665 168.503,190.604 168.343,190.411 165.800 L 190.200 163.000 188.400 163.000 L 186.600 163.000 186.493 173.500 L 186.387 184.000 188.393 184.000 L 190.400 184.000 190.400 178.249 C 190.400 170.109,191.849 167.396,196.443 166.940 C 201.451 166.442,202.138 167.577,202.400 176.780 L 202.600 183.800 204.500 183.922 L 206.400 184.044 206.384 175.922 C 206.365 166.739,205.959 165.111,203.241 163.304 C 201.649 162.245,197.460 162.088,195.363 163.008 M213.400 162.996 C 207.436 165.632,209.197 171.631,216.400 173.215 C 223.378 174.750,225.612 176.746,223.049 179.154 C 220.119 181.907,212.800 180.012,212.800 176.500 C 212.800 175.187,212.761 175.155,211.300 175.276 L 209.800 175.400 209.680 177.475 C 209.246 184.977,223.870 187.728,227.281 180.786 C 229.108 177.067,227.184 174.497,221.600 173.194 C 215.074 171.670,213.600 170.889,213.600 168.954 C 213.600 166.137,219.958 165.282,222.572 167.747 C 223.506 168.629,224.000 169.458,224.000 170.147 C 224.000 171.034,224.177 171.200,225.120 171.200 C 229.051 171.200,227.341 165.093,222.867 163.152 C 220.798 162.254,215.283 162.163,213.400 162.996 M269.863 163.334 C 268.374 164.236,265.643 167.685,265.614 168.700 C 265.606 168.975,265.437 169.200,265.238 169.200 C 265.039 169.200,264.989 168.435,265.126 167.500 C 265.264 166.565,265.382 165.170,265.388 164.400 L 265.400 163.000 263.400 163.000 L 261.400 163.000 261.400 173.400 L 261.400 183.800 263.242 183.920 L 265.084 184.039 265.291 177.865 C 265.564 169.737,267.372 166.800,272.101 166.800 C 276.687 166.800,277.600 168.582,277.600 177.526 L 277.600 184.000 279.600 184.000 L 281.600 184.000 281.600 176.471 C 281.600 167.567,281.235 165.977,278.690 163.799 C 276.563 161.978,272.460 161.762,269.863 163.334 M293.521 163.416 C 292.708 163.949,291.538 165.243,290.921 166.292 L 289.800 168.200 289.600 165.600 L 289.400 163.000 287.600 163.000 L 285.800 163.000 285.693 173.500 L 285.587 184.000 287.593 184.000 L 289.600 184.000 289.600 177.984 C 289.600 169.886,290.879 167.303,295.087 166.903 C 299.082 166.523,300.000 168.549,300.000 177.746 L 300.000 184.000 302.000 184.000 L 304.000 184.000 304.000 178.233 C 304.000 169.686,305.425 167.000,309.961 167.000 C 313.909 167.000,314.400 168.130,314.400 177.219 L 314.400 184.000 316.400 184.000 L 318.400 184.000 318.394 176.100 C 318.385 164.512,317.355 162.398,311.720 162.401 C 308.202 162.404,305.688 164.352,304.368 168.100 C 303.738 169.887,303.200 170.047,303.200 168.449 C 303.200 163.490,297.741 160.651,293.521 163.416 M327.023 163.219 C 320.497 166.474,319.242 177.131,324.794 182.147 C 329.440 186.345,337.389 185.166,339.931 179.903 L 340.753 178.200 339.932 177.500 C 338.735 176.479,337.704 176.638,337.028 177.946 C 334.649 182.546,326.215 180.588,325.360 175.237 L 325.101 173.618 332.850 173.509 L 340.600 173.400 340.718 170.715 C 341.010 164.067,333.529 159.973,327.023 163.219 M352.842 163.231 C 350.807 164.472,348.800 166.920,348.800 168.162 C 348.800 168.513,348.604 168.800,348.364 168.800 C 348.086 168.800,347.957 167.889,348.010 166.300 C 348.133 162.566,348.231 162.741,346.100 162.878 L 344.200 163.000 344.093 173.500 L 343.987 184.000 345.993 184.000 L 348.000 184.000 348.000 178.946 C 348.000 170.320,350.028 166.800,355.000 166.800 C 359.350 166.800,360.087 168.228,360.314 177.100 L 360.491 184.000 362.486 184.000 L 364.481 184.000 364.338 175.700 C 364.177 166.377,363.852 165.174,360.987 163.300 C 359.095 162.062,354.819 162.026,352.842 163.231 M230.893 173.479 L 231.000 183.800 233.000 183.800 L 235.000 183.800 235.000 173.600 L 235.000 163.400 232.893 163.279 L 230.786 163.158 230.893 173.479 M250.000 166.034 C 254.896 167.162,254.994 172.487,250.139 173.629 C 243.412 175.210,239.814 167.934,246.400 166.069 C 248.212 165.555,247.933 165.558,250.000 166.034 M31.251 166.965 C 34.654 168.391,36.183 172.750,34.605 176.527 C 32.644 181.219,24.940 181.634,22.438 177.182 C 19.056 171.165,24.955 164.327,31.251 166.965 M55.397 167.772 C 56.652 168.955,56.834 169.353,56.726 170.672 L 56.600 172.200 50.892 172.311 C 44.445 172.436,44.252 172.346,45.475 169.760 C 47.188 166.139,52.531 165.068,55.397 167.772 M93.190 167.651 C 94.251 168.712,94.423 169.153,94.320 170.551 L 94.200 172.200 88.605 172.200 C 82.352 172.200,82.143 172.093,83.378 169.516 C 84.957 166.224,90.676 165.137,93.190 167.651 M175.871 167.234 C 180.434 169.443,180.883 176.293,176.661 179.299 C 174.707 180.690,170.219 180.567,168.254 179.068 C 161.352 173.804,168.025 163.436,175.871 167.234 M335.608 167.500 C 337.023 168.776,337.699 171.439,336.759 172.034 C 335.850 172.609,326.104 172.491,325.734 171.900 C 323.464 168.281,332.170 164.401,335.608 167.500 M249.000 181.206 C 253.985 181.759,255.105 182.444,254.563 184.605 C 253.763 187.792,242.821 188.210,241.638 185.099 C 240.250 181.450,242.149 180.446,249.000 181.206 " stroke="none" fill="#3d35fc" fill-rule="evenodd"></path><path id="path1" d="M0.000 168.000 L 0.000 203.600 200.000 203.600 L 400.000 203.600 400.000 168.000 L 400.000 132.400 200.000 132.400 L 0.000 132.400 0.000 168.000 M21.214 161.400 C 21.332 165.360,21.467 168.371,21.514 168.091 C 22.336 163.228,30.380 160.639,34.824 163.807 C 40.396 167.777,40.263 179.179,34.600 183.050 C 30.537 185.827,25.109 184.938,22.613 181.088 C 21.695 179.671,21.428 179.957,21.545 182.229 L 21.639 184.043 19.520 183.922 L 17.400 183.800 17.295 169.402 C 17.174 152.908,17.043 153.914,19.296 154.077 L 21.000 154.200 21.214 161.400 M67.400 169.000 L 67.400 183.800 65.400 183.800 L 63.400 183.800 63.295 169.447 C 63.178 153.486,63.114 153.886,65.765 154.080 L 67.400 154.200 67.400 169.000 M75.556 154.547 C 75.881 154.938,75.980 159.187,75.905 169.447 L 75.800 183.800 73.800 183.800 L 71.800 183.800 71.695 169.402 C 71.637 161.483,71.676 154.778,71.782 154.502 C 72.043 153.823,74.984 153.858,75.556 154.547 M104.357 156.700 C 104.254 162.146,103.891 163.800,102.800 163.800 C 101.807 163.800,101.799 163.771,101.591 159.400 C 101.344 154.193,101.285 154.400,103.024 154.400 L 104.400 154.400 104.357 156.700 M234.988 155.987 C 235.977 157.079,235.892 158.796,234.806 159.676 C 232.139 161.835,228.677 158.866,230.623 156.089 C 231.447 154.913,233.963 154.854,234.988 155.987 M374.302 159.386 L 374.090 162.771 377.745 162.886 L 381.400 163.000 381.526 164.528 C 381.717 166.845,381.188 167.200,377.551 167.200 L 374.400 167.200 374.400 172.354 C 374.400 179.067,374.992 180.381,378.024 180.394 C 379.796 180.401,380.723 179.748,381.137 178.200 C 381.414 177.162,381.643 177.000,382.829 177.000 L 384.200 177.000 384.175 178.905 C 384.091 185.145,374.211 186.911,371.330 181.200 C 370.507 179.568,370.421 178.833,370.411 173.322 L 370.400 167.244 368.500 167.122 L 366.600 167.000 366.600 165.000 C 366.600 163.163,366.682 162.991,367.600 162.888 C 370.595 162.553,371.200 161.762,371.200 158.181 L 371.200 156.000 372.856 156.000 L 374.513 156.000 374.302 159.386 M257.920 157.280 C 258.966 158.326,258.516 160.800,257.280 160.800 C 254.909 160.800,254.541 162.807,256.407 165.560 C 260.044 170.927,256.385 175.485,247.730 176.373 C 243.426 176.814,241.794 177.317,241.408 178.322 C 241.032 179.302,241.730 179.464,247.535 179.741 C 256.804 180.183,260.271 182.212,258.818 186.341 C 256.196 193.793,240.000 193.229,240.000 185.686 C 240.000 184.785,240.180 183.936,240.400 183.800 C 241.419 183.170,240.818 181.652,239.500 181.525 C 236.168 181.204,238.957 176.000,242.461 176.000 C 243.548 176.000,243.363 175.469,241.995 174.661 C 238.550 172.625,238.268 166.299,241.524 164.090 C 243.674 162.633,244.890 162.355,248.767 162.435 L 252.600 162.515 252.800 160.757 C 253.167 157.530,256.147 155.507,257.920 157.280 M55.737 163.000 C 59.244 164.465,61.345 168.492,60.411 171.959 L 59.969 173.600 52.385 173.600 L 44.800 173.600 44.800 174.646 C 44.800 175.987,46.283 178.632,47.473 179.411 C 50.420 181.342,56.800 180.003,56.800 177.453 C 56.800 177.060,57.128 176.800,57.626 176.800 C 62.204 176.800,59.591 182.621,54.308 184.190 C 44.040 187.239,36.557 174.784,43.331 165.920 C 45.806 162.682,51.673 161.301,55.737 163.000 M93.251 162.964 C 96.493 164.318,98.400 167.002,98.400 170.210 C 98.400 173.684,98.608 173.600,89.986 173.600 C 81.397 173.600,81.671 173.469,83.316 176.776 C 85.434 181.033,92.161 181.793,94.309 178.019 C 95.603 175.745,98.436 176.868,97.622 179.332 C 95.582 185.514,84.784 186.541,80.913 180.922 C 74.431 171.515,83.194 158.761,93.251 162.964 M122.211 163.247 C 126.018 165.037,127.699 171.200,124.380 171.200 C 123.160 171.200,123.060 171.080,122.623 169.088 C 121.827 165.464,112.800 165.368,112.800 168.983 C 112.800 170.715,114.087 171.664,117.400 172.376 C 126.014 174.227,128.318 176.481,126.186 180.974 C 122.708 188.302,106.894 184.168,108.605 176.378 C 109.034 174.425,111.648 174.764,111.856 176.800 C 112.284 180.999,121.591 181.884,122.988 177.858 C 123.658 175.925,121.469 174.612,115.200 173.190 C 109.640 171.929,107.685 169.327,109.519 165.627 C 111.049 162.543,117.956 161.247,122.211 163.247 M155.425 163.254 C 158.387 164.646,160.129 167.836,159.436 170.597 C 159.009 172.299,156.573 172.045,156.238 170.264 C 154.957 163.432,143.886 166.363,144.030 173.496 C 144.161 179.936,154.369 183.369,156.203 177.590 C 156.809 175.682,159.752 177.142,159.350 179.150 C 158.107 185.366,146.363 186.603,142.529 180.922 C 139.403 176.292,139.812 168.697,143.379 165.130 C 146.145 162.364,151.694 161.500,155.425 163.254 M177.930 163.440 C 184.752 166.839,185.196 179.207,178.631 182.986 C 169.319 188.345,159.453 180.659,162.063 170.077 C 163.694 163.465,171.460 160.216,177.930 163.440 M203.241 163.304 C 205.959 165.111,206.365 166.739,206.384 175.922 L 206.400 184.044 204.500 183.922 L 202.600 183.800 202.400 176.780 C 202.138 167.577,201.451 166.442,196.443 166.940 C 191.849 167.396,190.400 170.109,190.400 178.249 L 190.400 184.000 188.393 184.000 L 186.387 184.000 186.493 173.500 L 186.600 163.000 188.400 163.000 L 190.200 163.000 190.411 165.800 C 190.604 168.343,190.665 168.503,191.085 167.544 C 193.060 163.029,199.466 160.794,203.241 163.304 M222.867 163.152 C 227.341 165.093,229.051 171.200,225.120 171.200 C 224.177 171.200,224.000 171.034,224.000 170.147 C 224.000 169.458,223.506 168.629,222.572 167.747 C 219.958 165.282,213.600 166.137,213.600 168.954 C 213.600 170.889,215.074 171.670,221.600 173.194 C 227.184 174.497,229.108 177.067,227.281 180.786 C 223.870 187.728,209.246 184.977,209.680 177.475 L 209.800 175.400 211.300 175.276 C 212.761 175.155,212.800 175.187,212.800 176.500 C 212.800 180.012,220.119 181.907,223.049 179.154 C 225.612 176.746,223.378 174.750,216.400 173.215 C 210.376 171.890,208.044 167.971,211.243 164.550 C 213.327 162.320,219.295 161.603,222.867 163.152 M278.690 163.799 C 281.235 165.977,281.600 167.567,281.600 176.471 L 281.600 184.000 279.600 184.000 L 277.600 184.000 277.600 177.526 C 277.600 168.582,276.687 166.800,272.101 166.800 C 267.372 166.800,265.564 169.737,265.291 177.865 L 265.084 184.039 263.242 183.920 L 261.400 183.800 261.400 173.400 L 261.400 163.000 263.400 163.000 L 265.400 163.000 265.388 164.400 C 265.382 165.170,265.264 166.565,265.126 167.500 C 264.989 168.435,265.039 169.200,265.238 169.200 C 265.437 169.200,265.606 168.975,265.614 168.700 C 265.643 167.685,268.374 164.236,269.863 163.334 C 272.460 161.762,276.563 161.978,278.690 163.799 M300.784 163.448 C 302.185 164.627,303.200 166.728,303.200 168.449 C 303.200 170.047,303.738 169.887,304.368 168.100 C 305.688 164.352,308.202 162.404,311.720 162.401 C 317.355 162.398,318.385 164.512,318.394 176.100 L 318.400 184.000 316.400 184.000 L 314.400 184.000 314.400 177.219 C 314.400 168.130,313.909 167.000,309.961 167.000 C 305.425 167.000,304.000 169.686,304.000 178.233 L 304.000 184.000 302.000 184.000 L 300.000 184.000 300.000 177.746 C 300.000 168.549,299.082 166.523,295.087 166.903 C 290.879 167.303,289.600 169.886,289.600 177.984 L 289.600 184.000 287.593 184.000 L 285.587 184.000 285.693 173.500 L 285.800 163.000 287.600 163.000 L 289.400 163.000 289.600 165.600 L 289.800 168.200 290.921 166.292 C 293.170 162.468,297.973 161.082,300.784 163.448 M336.129 162.996 C 339.368 164.350,340.885 166.902,340.718 170.715 L 340.600 173.400 332.850 173.509 L 325.101 173.618 325.360 175.237 C 326.215 180.588,334.649 182.546,337.028 177.946 C 337.704 176.638,338.735 176.479,339.932 177.500 L 340.753 178.200 339.931 179.903 C 336.627 186.744,325.796 186.118,322.386 178.888 C 317.895 169.365,326.780 159.090,336.129 162.996 M360.987 163.300 C 363.852 165.174,364.177 166.377,364.338 175.700 L 364.481 184.000 362.486 184.000 L 360.491 184.000 360.314 177.100 C 360.087 168.228,359.350 166.800,355.000 166.800 C 350.028 166.800,348.000 170.320,348.000 178.946 L 348.000 184.000 345.993 184.000 L 343.987 184.000 344.093 173.500 L 344.200 163.000 346.100 162.878 C 348.231 162.741,348.133 162.566,348.010 166.300 C 347.957 167.889,348.086 168.800,348.364 168.800 C 348.604 168.800,348.800 168.513,348.800 168.162 C 348.800 167.561,350.021 165.572,351.029 164.529 C 353.267 162.216,358.367 161.586,360.987 163.300 M235.000 173.600 L 235.000 183.800 233.000 183.800 L 231.000 183.800 230.893 173.479 L 230.786 163.158 232.893 163.279 L 235.000 163.400 235.000 173.600 M246.400 166.069 C 239.814 167.934,243.412 175.210,250.139 173.629 C 254.994 172.487,254.896 167.162,250.000 166.034 C 247.933 165.558,248.212 165.555,246.400 166.069 M25.536 166.938 C 21.887 168.559,20.384 173.528,22.438 177.182 C 24.940 181.634,32.644 181.219,34.605 176.527 C 37.163 170.404,31.415 164.325,25.536 166.938 M47.559 167.314 C 46.110 168.289,44.608 170.922,44.967 171.857 C 45.142 172.315,46.271 172.401,50.892 172.311 L 56.600 172.200 56.726 170.672 C 57.027 167.017,51.183 164.877,47.559 167.314 M85.305 167.325 C 83.906 168.270,82.667 170.412,82.879 171.516 C 82.996 172.122,83.645 172.200,88.605 172.200 L 94.200 172.200 94.320 170.551 C 94.591 166.845,88.985 164.838,85.305 167.325 M169.536 166.938 C 164.762 169.059,164.043 175.857,168.254 179.068 C 170.219 180.567,174.707 180.690,176.661 179.299 C 183.490 174.436,177.204 163.530,169.536 166.938 M328.183 167.145 C 326.217 168.344,324.993 170.720,325.734 171.900 C 326.104 172.491,335.850 172.609,336.759 172.034 C 337.699 171.439,337.023 168.776,335.608 167.500 C 334.064 166.108,330.187 165.923,328.183 167.145 M242.364 181.313 C 240.669 182.612,241.269 185.736,243.385 186.619 C 248.134 188.604,255.771 186.195,254.578 183.088 C 253.954 181.462,244.048 180.022,242.364 181.313 " stroke="none" fill="#fbfbf4" fill-rule="evenodd"></path></g></svg>